<?xml version="1.0" encoding="UTF-8" standalone="no"?>
<svg
   version="1.1"
   viewBox="0 0 508.9 508.9"
   width="508.9"
   height="508.9" >
   <g
     transform="matrix(0,-1,1,0,0,508.9)"
     id="g4">
    <path
       style="fill:#a31c09"
       d="M 505.605,190.556 C 491.816,204.345 438.718,173.607 387.006,121.895 335.294,70.183 304.556,17.085 318.345,3.296 c 13.789,-13.789 66.887,16.949 118.599,68.661 51.712,51.712 82.45,104.811 68.661,118.599" />
    <polygon
       style="fill:#d9dbe8;stroke:#000000;stroke-opacity:1;stroke-width:1.5;stroke-miterlimit:4;stroke-dasharray:none"
       points="112.358,346.605 162.295,396.543 0,508.9 " />
    <path
       style="fill:#ce3929"
       d="M 387.007,121.894 C 335.295,70.182 304.557,17.084 318.346,3.295 c -49.991,49.991 -39.23,123.065 12.482,174.777 51.712,51.712 121.671,65.589 171.652,15.607 l -0.786,-0.821 c -18.069,6.577 -66.93,-23.207 -114.687,-70.964" />
    <path
       style="fill:#a31c09"
       d="m 342.08,279.177 58.606,-58.606 c -24.594,-6.727 -48.746,-21.389 -69.853,-42.496 -21.116,-21.116 -35.257,-45.789 -41.366,-70.991 l -59.727,59.719 -48.719,48.719 c 6.118,25.212 22.581,47.554 43.697,68.661 21.107,21.116 44.067,36.97 68.661,43.697 l 48.701,-48.703 z" />
    <path
       style="fill:#a31c09"
       d="m 342.08,279.177 58.606,-58.606 c -24.594,-6.727 -48.746,-21.389 -69.853,-42.496 -21.116,-21.116 -35.257,-45.789 -41.366,-70.991 l -59.727,59.719 -48.719,48.719 c 6.118,25.212 22.581,47.554 43.697,68.661 21.107,21.116 44.067,36.97 68.661,43.697 l 48.701,-48.703 z" />
    <path
       style="fill:#ce3929"
       d="m 311.324,389.978 c 2.348,-21.486 -1.607,-44.226 -11.829,-68.22 l -6.118,6.126 C 268.783,321.149 245.823,305.294 224.716,284.187 203.6,263.08 187.137,240.729 181.019,215.526 l 6.241,-6.241 -0.274,-0.282 c -24.143,-10.346 -47.016,-14.345 -68.626,-11.979 -40.157,4.378 -64.071,45.877 -47.634,82.785 12.509,28.072 35.566,60.734 66.322,91.489 30.746,30.747 63.417,53.813 91.489,66.313 36.901,16.437 78.4,-7.477 82.787,-47.633" />
  </g>
</svg>
